<svg xmlns="http://www.w3.org/2000/svg" xmlns:xlink="http://www.w3.org/1999/xlink" width="300" zoomAndPan="magnify" viewBox="0 0 224.87999 97.5" height="130" preserveAspectRatio="xMidYMid meet" version="1.2"><defs><clipPath id="b830abff72"><path d="M 146 22 L 165.726562 22 L 165.726562 53 L 146 53 Z M 146 22 "/></clipPath><clipPath id="354c2d6bfa"><rect x="0" width="166" y="0" height="63"/></clipPath><clipPath id="ce4834175b"><path d="M 10 0 L 109 0 L 109 97.003906 L 10 97.003906 Z M 10 0 "/></clipPath><clipPath id="fa08f327c0"><rect x="0" width="99" y="0" height="98"/></clipPath></defs><g id="98f1a42a21"><g transform="matrix(1,0,0,1,43,24)"><g clip-path="url(#354c2d6bfa)"><g style="fill:#000000;fill-opacity:1;"><g transform="translate(2.210865, 45.228816)"><path style="stroke:none" d="M 9.484375 -11.109375 C 9.597656 -11.285156 9.707031 -11.4375 9.8125 -11.5625 C 9.914062 -11.6875 10.039062 -11.785156 10.1875 -11.859375 C 10.289062 -11.929688 10.414062 -12.078125 10.5625 -12.296875 C 10.707031 -12.617188 10.859375 -12.929688 11.015625 -13.234375 C 11.179688 -13.535156 11.335938 -13.832031 11.484375 -14.125 C 11.878906 -14.875 12.253906 -15.617188 12.609375 -16.359375 C 12.972656 -17.097656 13.296875 -17.84375 13.578125 -18.59375 C 13.867188 -19.207031 14.140625 -19.828125 14.390625 -20.453125 C 14.640625 -21.085938 14.835938 -21.726562 14.984375 -22.375 C 15.054688 -22.695312 15.179688 -23.019531 15.359375 -23.34375 C 15.535156 -23.664062 15.734375 -23.96875 15.953125 -24.25 C 16.023438 -24.394531 16.164062 -24.515625 16.375 -24.609375 C 16.59375 -24.703125 16.796875 -24.765625 16.984375 -24.796875 C 17.335938 -24.898438 17.648438 -24.914062 17.921875 -24.84375 C 18.191406 -24.78125 18.472656 -24.726562 18.765625 -24.6875 C 19.015625 -24.65625 19.242188 -24.601562 19.453125 -24.53125 C 19.671875 -24.457031 19.890625 -24.382812 20.109375 -24.3125 C 20.359375 -24.269531 20.582031 -24.195312 20.78125 -24.09375 C 20.976562 -23.988281 21.078125 -23.789062 21.078125 -23.5 C 21.035156 -23.320312 21.050781 -23.171875 21.125 -23.046875 C 21.195312 -22.921875 21.289062 -22.785156 21.40625 -22.640625 C 21.476562 -22.566406 21.503906 -22.445312 21.484375 -22.28125 C 21.460938 -22.125 21.4375 -21.992188 21.40625 -21.890625 C 21.40625 -21.742188 21.382812 -21.625 21.34375 -21.53125 C 21.3125 -21.445312 21.347656 -21.367188 21.453125 -21.296875 C 21.523438 -21.253906 21.523438 -21.144531 21.453125 -20.96875 C 21.304688 -20.613281 21.1875 -20.226562 21.09375 -19.8125 C 21.007812 -19.394531 20.84375 -18.988281 20.59375 -18.59375 C 20.269531 -18.050781 20.050781 -17.550781 19.9375 -17.09375 C 19.800781 -16.445312 19.601562 -15.78125 19.34375 -15.09375 C 19.09375 -14.40625 18.84375 -13.738281 18.59375 -13.09375 C 18.34375 -12.300781 18.097656 -11.507812 17.859375 -10.71875 C 17.628906 -9.9375 17.460938 -9.164062 17.359375 -8.40625 C 16.921875 -6.570312 16.703125 -5.273438 16.703125 -4.515625 C 16.703125 -3.765625 16.863281 -3.425781 17.1875 -3.5 C 17.519531 -3.570312 17.9375 -3.910156 18.4375 -4.515625 C 18.9375 -5.128906 19.472656 -5.90625 20.046875 -6.84375 C 20.628906 -7.78125 21.171875 -8.734375 21.671875 -9.703125 C 22.171875 -10.671875 22.582031 -11.535156 22.90625 -12.296875 L 23.875 -14.453125 C 24.125 -15.054688 24.375 -15.679688 24.625 -16.328125 C 24.882812 -16.972656 25.101562 -17.585938 25.28125 -18.171875 C 25.570312 -19.023438 25.84375 -19.875 26.09375 -20.71875 C 26.34375 -21.570312 26.519531 -22.410156 26.625 -23.234375 C 26.8125 -24.273438 26.945312 -25.28125 27.03125 -26.25 C 27.125 -27.21875 27.171875 -28.1875 27.171875 -29.15625 L 27.0625 -31.90625 C 27.0625 -32.195312 27.007812 -32.503906 26.90625 -32.828125 C 26.832031 -32.929688 26.722656 -33.03125 26.578125 -33.125 C 26.429688 -33.21875 26.269531 -33.226562 26.09375 -33.15625 C 25.800781 -33.113281 25.597656 -33.15625 25.484375 -33.28125 C 25.378906 -33.40625 25.296875 -33.539062 25.234375 -33.6875 C 25.160156 -33.863281 25.085938 -34.039062 25.015625 -34.21875 C 24.941406 -34.40625 24.867188 -34.585938 24.796875 -34.765625 C 24.765625 -34.835938 24.78125 -35 24.84375 -35.25 L 25.125 -35.796875 L 25.828125 -36.0625 C 26.179688 -35.914062 26.53125 -35.796875 26.875 -35.703125 C 27.21875 -35.617188 27.566406 -35.503906 27.921875 -35.359375 C 28.171875 -35.328125 28.410156 -35.253906 28.640625 -35.140625 C 28.878906 -35.035156 29.085938 -34.894531 29.265625 -34.71875 L 29.640625 -34.546875 C 29.859375 -34.441406 30.003906 -34.226562 30.078125 -33.90625 C 30.117188 -33.757812 30.191406 -33.601562 30.296875 -33.4375 C 30.398438 -33.28125 30.488281 -33.128906 30.5625 -32.984375 C 30.664062 -32.847656 30.78125 -32.707031 30.90625 -32.5625 C 31.039062 -32.414062 31.195312 -32.289062 31.375 -32.1875 C 31.445312 -32.144531 31.488281 -32.078125 31.5 -31.984375 C 31.519531 -31.898438 31.550781 -31.820312 31.59375 -31.75 C 31.664062 -31.570312 31.726562 -31.398438 31.78125 -31.234375 C 31.832031 -31.078125 31.945312 -30.941406 32.125 -30.828125 C 32.488281 -30.648438 32.578125 -30.289062 32.390625 -29.75 C 32.359375 -29.5 32.414062 -29.300781 32.5625 -29.15625 C 32.769531 -28.90625 32.875 -28.601562 32.875 -28.25 C 32.84375 -28.070312 32.878906 -27.898438 32.984375 -27.734375 C 33.097656 -27.566406 33.117188 -27.378906 33.046875 -27.171875 C 33.003906 -27.054688 32.984375 -26.945312 32.984375 -26.84375 C 32.984375 -26.738281 32.945312 -26.628906 32.875 -26.515625 C 32.8125 -26.265625 32.8125 -26.085938 32.875 -25.984375 C 32.945312 -25.835938 32.96875 -25.726562 32.9375 -25.65625 C 32.789062 -25.476562 32.742188 -25.332031 32.796875 -25.21875 C 32.847656 -25.113281 32.875 -24.988281 32.875 -24.84375 C 32.945312 -24.707031 32.972656 -24.539062 32.953125 -24.34375 C 32.941406 -24.144531 32.9375 -23.953125 32.9375 -23.765625 C 32.9375 -23.628906 32.9375 -23.476562 32.9375 -23.3125 C 32.9375 -23.15625 32.914062 -23.003906 32.875 -22.859375 C 32.875 -22.640625 32.875 -22.410156 32.875 -22.171875 C 32.875 -21.941406 32.84375 -21.722656 32.78125 -21.515625 C 32.707031 -21.222656 32.613281 -20.921875 32.5 -20.609375 C 32.394531 -20.304688 32.304688 -20.015625 32.234375 -19.734375 L 32.078125 -19.359375 C 31.859375 -18.992188 31.710938 -18.628906 31.640625 -18.265625 C 31.566406 -17.910156 31.441406 -17.519531 31.265625 -17.09375 L 31 -18.109375 C 30.957031 -18.035156 30.898438 -17.972656 30.828125 -17.921875 C 30.753906 -17.867188 30.71875 -17.804688 30.71875 -17.734375 C 30.6875 -17.160156 30.546875 -16.578125 30.296875 -15.984375 C 30.046875 -15.390625 29.8125 -14.785156 29.59375 -14.171875 C 29.59375 -14.066406 29.539062 -13.960938 29.4375 -13.859375 C 29.113281 -13.710938 28.921875 -13.515625 28.859375 -13.265625 C 28.804688 -13.015625 28.742188 -12.78125 28.671875 -12.5625 C 28.640625 -12.34375 28.578125 -12.148438 28.484375 -11.984375 C 28.398438 -11.828125 28.25 -11.660156 28.03125 -11.484375 C 27.882812 -11.335938 27.726562 -11.15625 27.5625 -10.9375 C 27.40625 -10.726562 27.289062 -10.492188 27.21875 -10.234375 C 27.1875 -10.097656 27.140625 -9.96875 27.078125 -9.84375 C 27.023438 -9.71875 26.96875 -9.582031 26.90625 -9.4375 L 25.875 -7.703125 C 25.507812 -7.128906 25.15625 -6.5625 24.8125 -6 C 24.476562 -5.445312 24.113281 -4.882812 23.71875 -4.3125 C 23.25 -3.664062 22.753906 -3.007812 22.234375 -2.34375 C 21.710938 -1.675781 21.179688 -1.019531 20.640625 -0.375 C 20.316406 0.0507812 19.929688 0.378906 19.484375 0.609375 C 19.035156 0.847656 18.5625 0.953125 18.0625 0.921875 C 17.84375 0.921875 17.679688 0.9375 17.578125 0.96875 C 17.035156 1.039062 16.566406 0.988281 16.171875 0.8125 C 15.773438 0.625 15.367188 0.421875 14.953125 0.203125 C 14.546875 -0.00390625 14.195312 -0.285156 13.90625 -0.640625 C 13.757812 -0.785156 13.648438 -0.945312 13.578125 -1.125 C 13.503906 -1.3125 13.4375 -1.472656 13.375 -1.609375 C 13.300781 -3.304688 13.226562 -4.53125 13.15625 -5.28125 C 13.082031 -6.039062 12.785156 -6.222656 12.265625 -5.828125 C 11.742188 -5.429688 10.765625 -4.351562 9.328125 -2.59375 C 9.148438 -2.445312 8.988281 -2.300781 8.84375 -2.15625 C 8.695312 -2.007812 8.535156 -1.882812 8.359375 -1.78125 C 7.785156 -1.3125 7.171875 -0.929688 6.515625 -0.640625 C 5.867188 -0.359375 5.1875 -0.109375 4.46875 0.109375 L 4.046875 0.109375 L 1.40625 0.21875 C 0.613281 0.289062 0 0.144531 -0.4375 -0.21875 C -0.71875 -0.394531 -0.894531 -0.664062 -0.96875 -1.03125 C -1.113281 -1.8125 -1.175781 -2.609375 -1.15625 -3.421875 C -1.132812 -4.234375 -1.019531 -5.050781 -0.8125 -5.875 C -0.59375 -6.695312 -0.359375 -7.492188 -0.109375 -8.265625 C 0.140625 -9.046875 0.351562 -9.8125 0.53125 -10.5625 C 0.925781 -11.96875 1.320312 -13.367188 1.71875 -14.765625 C 2.113281 -16.171875 2.546875 -17.570312 3.015625 -18.96875 C 3.265625 -19.6875 3.453125 -20.421875 3.578125 -21.171875 C 3.703125 -21.929688 3.835938 -22.671875 3.984375 -23.390625 C 4.128906 -24.003906 4.242188 -24.609375 4.328125 -25.203125 C 4.421875 -25.796875 4.453125 -26.378906 4.421875 -26.953125 C 4.421875 -27.054688 4.4375 -27.144531 4.46875 -27.21875 C 4.757812 -27.289062 5.039062 -27.34375 5.3125 -27.375 C 5.582031 -27.414062 5.84375 -27.4375 6.09375 -27.4375 C 6.5625 -27.46875 6.832031 -27.269531 6.90625 -26.84375 C 6.90625 -26.625 6.957031 -26.425781 7.0625 -26.25 C 7.238281 -25.851562 7.304688 -25.4375 7.265625 -25 C 7.234375 -24.570312 7.179688 -24.109375 7.109375 -23.609375 C 6.972656 -22.890625 6.832031 -22.160156 6.6875 -21.421875 C 6.539062 -20.691406 6.394531 -19.96875 6.25 -19.25 C 6.101562 -18.632812 5.984375 -18.003906 5.890625 -17.359375 C 5.804688 -16.710938 5.710938 -16.066406 5.609375 -15.421875 C 5.566406 -15.097656 5.535156 -14.765625 5.515625 -14.421875 C 5.503906 -14.078125 5.476562 -13.726562 5.4375 -13.375 C 5.4375 -13.15625 5.4375 -12.945312 5.4375 -12.75 C 5.4375 -12.550781 5.421875 -12.328125 5.390625 -12.078125 C 4.992188 -9.484375 4.9375 -7.789062 5.21875 -7 C 5.507812 -6.21875 6.039062 -6.203125 6.8125 -6.953125 C 7.59375 -7.703125 8.484375 -9.085938 9.484375 -11.109375 Z M 27.328125 -23.609375 C 27.148438 -23.253906 27.035156 -22.90625 26.984375 -22.5625 C 26.929688 -22.21875 26.847656 -21.867188 26.734375 -21.515625 C 26.585938 -21.179688 26.46875 -20.832031 26.375 -20.46875 C 26.289062 -20.113281 26.195312 -19.757812 26.09375 -19.40625 C 25.976562 -19.039062 25.882812 -18.695312 25.8125 -18.375 C 25.75 -18.050781 25.660156 -17.710938 25.546875 -17.359375 L 25.765625 -17.359375 C 26.191406 -18.398438 26.519531 -19.441406 26.75 -20.484375 C 26.988281 -21.523438 27.179688 -22.566406 27.328125 -23.609375 Z M 28.03125 -29.0625 L 27.703125 -26.46875 C 27.742188 -26.5 27.816406 -26.515625 27.921875 -26.515625 C 28.066406 -26.703125 28.128906 -26.859375 28.109375 -26.984375 C 28.085938 -27.109375 28.078125 -27.242188 28.078125 -27.390625 C 28.078125 -27.523438 28.085938 -27.664062 28.109375 -27.8125 C 28.128906 -27.957031 28.140625 -28.101562 28.140625 -28.25 C 28.140625 -28.394531 28.128906 -28.53125 28.109375 -28.65625 C 28.085938 -28.78125 28.078125 -28.914062 28.078125 -29.0625 Z M 31.703125 -19.453125 L 31.796875 -19.453125 C 31.796875 -19.597656 31.804688 -19.757812 31.828125 -19.9375 C 31.847656 -20.125 31.859375 -20.289062 31.859375 -20.4375 C 31.710938 -20.320312 31.640625 -20.226562 31.640625 -20.15625 C 31.640625 -20.082031 31.660156 -19.847656 31.703125 -19.453125 Z M 31.703125 -19.453125 "/></g></g><g style="fill:#000000;fill-opacity:1;"><g transform="translate(33.85481, 45.228816)"><path style="stroke:none" d="M 19.140625 -12.5625 L 19.296875 -12.671875 C 19.472656 -12.628906 19.632812 -12.5625 19.78125 -12.46875 C 19.925781 -12.382812 20.070312 -12.269531 20.21875 -12.125 C 20.175781 -11.945312 20.054688 -11.613281 19.859375 -11.125 C 19.660156 -10.644531 19.492188 -10.347656 19.359375 -10.234375 C 19.285156 -10.203125 19.226562 -10.160156 19.1875 -10.109375 C 19.15625 -10.054688 19.101562 -10.007812 19.03125 -9.96875 L 18.4375 -9.265625 C 18.394531 -9.234375 18.335938 -9.179688 18.265625 -9.109375 C 18.203125 -9.035156 18.148438 -8.960938 18.109375 -8.890625 C 18.003906 -8.640625 17.789062 -8.425781 17.46875 -8.25 C 17.320312 -8.175781 17.234375 -8.101562 17.203125 -8.03125 C 17.054688 -7.851562 16.882812 -7.679688 16.6875 -7.515625 C 16.488281 -7.359375 16.300781 -7.1875 16.125 -7 C 15.832031 -6.75 15.488281 -6.570312 15.09375 -6.46875 C 14.84375 -6.4375 14.609375 -6.398438 14.390625 -6.359375 C 14.171875 -6.328125 13.957031 -6.273438 13.75 -6.203125 C 13.5625 -6.128906 13.359375 -6.082031 13.140625 -6.0625 C 12.929688 -6.039062 12.71875 -5.992188 12.5 -5.921875 L 12.015625 -5.921875 C 11.691406 -6.035156 11.378906 -6.132812 11.078125 -6.21875 C 10.773438 -6.3125 10.476562 -6.46875 10.1875 -6.6875 L 9.921875 -6.84375 C 9.671875 -6.945312 9.4375 -7.070312 9.21875 -7.21875 C 9 -7.363281 8.800781 -7.546875 8.625 -7.765625 C 8.15625 -7.515625 7.78125 -7.28125 7.5 -7.0625 L 6.90625 -6.6875 C 6.863281 -6.6875 6.832031 -6.675781 6.8125 -6.65625 C 6.800781 -6.632812 6.796875 -6.625 6.796875 -6.625 C 6.648438 -6.414062 6.46875 -6.273438 6.25 -6.203125 C 6.03125 -6.128906 5.816406 -6.054688 5.609375 -5.984375 C 4.773438 -5.734375 4.035156 -5.785156 3.390625 -6.140625 C 3.253906 -6.210938 3.117188 -6.285156 2.984375 -6.359375 C 2.859375 -6.429688 2.726562 -6.484375 2.59375 -6.515625 C 1.039062 -7.171875 0.175781 -8.34375 0 -10.03125 C -0.101562 -10.851562 0.0390625 -11.660156 0.4375 -12.453125 C 0.613281 -12.804688 0.804688 -13.15625 1.015625 -13.5 C 1.234375 -13.84375 1.46875 -14.160156 1.71875 -14.453125 C 1.71875 -14.484375 1.753906 -14.535156 1.828125 -14.609375 C 2.191406 -15.148438 2.578125 -15.679688 2.984375 -16.203125 C 3.398438 -16.722656 3.804688 -17.21875 4.203125 -17.6875 C 4.816406 -18.332031 5.5 -18.890625 6.25 -19.359375 C 6.394531 -19.421875 6.554688 -19.453125 6.734375 -19.453125 C 6.910156 -19.492188 7.082031 -19.519531 7.25 -19.53125 C 7.414062 -19.550781 7.585938 -19.5625 7.765625 -19.5625 L 7.921875 -19.5625 C 8.097656 -19.488281 8.285156 -19.441406 8.484375 -19.421875 C 8.679688 -19.410156 8.875 -19.367188 9.0625 -19.296875 C 9.195312 -19.222656 9.300781 -19.1875 9.375 -19.1875 C 9.519531 -19.15625 9.644531 -19.128906 9.75 -19.109375 C 9.863281 -19.085938 9.9375 -19.023438 9.96875 -18.921875 C 10.007812 -18.878906 10.035156 -18.859375 10.046875 -18.859375 C 10.066406 -18.859375 10.078125 -18.859375 10.078125 -18.859375 C 10.222656 -18.859375 10.347656 -18.8125 10.453125 -18.71875 C 10.566406 -18.632812 10.691406 -18.59375 10.828125 -18.59375 C 10.941406 -18.59375 11.035156 -18.554688 11.109375 -18.484375 C 11.285156 -18.347656 11.453125 -18.195312 11.609375 -18.03125 C 11.773438 -17.863281 11.910156 -17.691406 12.015625 -17.515625 L 12.1875 -17.09375 C 12.289062 -16.625 12.128906 -16.265625 11.703125 -16.015625 C 11.441406 -15.898438 11.203125 -15.769531 10.984375 -15.625 C 10.773438 -15.488281 10.5625 -15.328125 10.34375 -15.140625 L 10.34375 -15.09375 C 10.0625 -14.800781 9.757812 -14.507812 9.4375 -14.21875 C 9.113281 -13.9375 8.828125 -13.617188 8.578125 -13.265625 L 7.921875 -12.5625 C 7.671875 -12.3125 7.445312 -12.03125 7.25 -11.71875 C 7.050781 -11.414062 6.84375 -11.117188 6.625 -10.828125 L 6.09375 -10.078125 C 6.019531 -10.003906 5.945312 -9.894531 5.875 -9.75 C 5.550781 -9.175781 5.335938 -8.585938 5.234375 -7.984375 C 5.234375 -7.984375 5.234375 -7.910156 5.234375 -7.765625 L 5.4375 -7.921875 C 5.726562 -8.210938 6.015625 -8.484375 6.296875 -8.734375 C 6.585938 -8.984375 6.894531 -9.234375 7.21875 -9.484375 C 7.582031 -9.773438 7.851562 -10.082031 8.03125 -10.40625 L 8.46875 -10.890625 C 8.644531 -11.066406 8.800781 -11.253906 8.9375 -11.453125 C 9.082031 -11.648438 9.226562 -11.859375 9.375 -12.078125 L 10.515625 -13.90625 C 11.046875 -13.976562 11.441406 -13.851562 11.703125 -13.53125 L 12.015625 -13.203125 C 12.203125 -12.953125 12.320312 -12.703125 12.375 -12.453125 C 12.425781 -12.203125 12.46875 -11.929688 12.5 -11.640625 C 12.5 -11.609375 12.460938 -11.519531 12.390625 -11.375 L 11.640625 -9.859375 C 11.492188 -9.503906 11.441406 -9.128906 11.484375 -8.734375 C 11.628906 -8.234375 11.789062 -7.785156 11.96875 -7.390625 C 12.070312 -7.203125 12.234375 -7.109375 12.453125 -7.109375 C 12.628906 -7.148438 12.816406 -7.1875 13.015625 -7.21875 C 13.210938 -7.257812 13.398438 -7.316406 13.578125 -7.390625 C 13.765625 -7.460938 13.945312 -7.539062 14.125 -7.625 C 14.300781 -7.71875 14.460938 -7.816406 14.609375 -7.921875 L 15.796875 -8.625 L 16.65625 -9.375 C 17.019531 -9.738281 17.429688 -10.269531 17.890625 -10.96875 C 18.359375 -11.664062 18.773438 -12.195312 19.140625 -12.5625 Z M 19.140625 -12.5625 "/></g></g><g style="fill:#000000;fill-opacity:1;"><g transform="translate(52.560859, 45.228816)"><path style="stroke:none" d="M 4.6875 -9.703125 C 4.46875 -9.054688 4.429688 -8.6875 4.578125 -8.59375 C 4.722656 -8.507812 4.945312 -8.582031 5.25 -8.8125 C 5.5625 -9.039062 5.847656 -9.332031 6.109375 -9.6875 C 6.378906 -10.050781 6.535156 -10.34375 6.578125 -10.5625 C 6.648438 -10.78125 6.789062 -11.140625 7 -11.640625 C 7.21875 -12.140625 7.46875 -12.6875 7.75 -13.28125 C 8.039062 -13.875 8.300781 -14.410156 8.53125 -14.890625 C 8.769531 -15.378906 8.945312 -15.695312 9.0625 -15.84375 C 9.238281 -16.09375 9.394531 -16.34375 9.53125 -16.59375 C 9.675781 -16.851562 9.820312 -17.109375 9.96875 -17.359375 C 10.363281 -17.859375 10.648438 -18.304688 10.828125 -18.703125 C 11.046875 -19.066406 11.335938 -19.285156 11.703125 -19.359375 C 11.878906 -19.359375 12.054688 -19.363281 12.234375 -19.375 C 12.410156 -19.394531 12.570312 -19.40625 12.71875 -19.40625 C 13.039062 -19.40625 13.3125 -19.296875 13.53125 -19.078125 C 13.75 -18.867188 13.925781 -18.582031 14.0625 -18.21875 L 14.0625 -18 L 14.453125 -15.796875 C 14.515625 -15.429688 14.535156 -15.066406 14.515625 -14.703125 C 14.503906 -14.347656 14.5 -13.992188 14.5 -13.640625 C 14.5 -13.390625 14.503906 -13.144531 14.515625 -12.90625 C 14.535156 -12.675781 14.53125 -12.4375 14.5 -12.1875 C 14.644531 -12.113281 14.71875 -12.03125 14.71875 -11.9375 C 14.71875 -11.851562 14.734375 -11.828125 14.765625 -11.859375 C 14.835938 -11.929688 14.945312 -11.945312 15.09375 -11.90625 C 15.238281 -11.875 15.328125 -11.875 15.359375 -11.90625 L 15.578125 -12.1875 C 15.679688 -12.257812 15.785156 -12.335938 15.890625 -12.421875 C 16.003906 -12.515625 16.113281 -12.632812 16.21875 -12.78125 C 16.363281 -13.03125 16.546875 -13.03125 16.765625 -12.78125 C 16.765625 -12.59375 16.691406 -12.445312 16.546875 -12.34375 L 16.390625 -12.078125 C 16.316406 -11.859375 16.207031 -11.734375 16.0625 -11.703125 L 15.90625 -11.53125 C 15.789062 -11.425781 15.734375 -11.375 15.734375 -11.375 L 15.578125 -11.265625 C 15.398438 -11.085938 15.203125 -11 14.984375 -11 C 14.835938 -11 14.675781 -10.925781 14.5 -10.78125 C 14.320312 -10.675781 14.175781 -10.675781 14.0625 -10.78125 C 13.882812 -10.882812 13.695312 -10.960938 13.5 -11.015625 C 13.300781 -11.078125 13.113281 -11.144531 12.9375 -11.21875 C 12.289062 -11.351562 11.820312 -11.851562 11.53125 -12.71875 C 11.382812 -13.21875 11.300781 -13.726562 11.28125 -14.25 C 11.269531 -14.78125 11.300781 -15.296875 11.375 -15.796875 C 11.445312 -16.046875 11.484375 -16.273438 11.484375 -16.484375 C 11.484375 -16.703125 11.5 -16.921875 11.53125 -17.140625 L 11.703125 -18.109375 C 11.804688 -18.285156 11.820312 -18.484375 11.75 -18.703125 C 11.644531 -18.703125 11.59375 -18.6875 11.59375 -18.65625 L 11.375 -18.375 L 10.625 -17.03125 C 10.476562 -16.78125 10.367188 -16.457031 10.296875 -16.0625 C 10.328125 -15.957031 10.316406 -15.859375 10.265625 -15.765625 C 10.210938 -15.671875 10.171875 -15.59375 10.140625 -15.53125 C 9.878906 -15.0625 9.648438 -14.597656 9.453125 -14.140625 C 9.253906 -13.691406 9.066406 -13.21875 8.890625 -12.71875 C 8.742188 -12.363281 8.585938 -12.015625 8.421875 -11.671875 C 8.265625 -11.328125 8.097656 -10.957031 7.921875 -10.5625 C 7.671875 -9.988281 7.410156 -9.441406 7.140625 -8.921875 C 6.867188 -8.398438 6.644531 -7.832031 6.46875 -7.21875 C 6.4375 -7.039062 6.363281 -6.84375 6.25 -6.625 C 6.144531 -6.414062 6.054688 -6.203125 5.984375 -5.984375 C 5.941406 -5.878906 5.796875 -5.582031 5.546875 -5.09375 C 5.296875 -4.601562 5.035156 -4.125 4.765625 -3.65625 C 4.492188 -3.195312 4.304688 -2.910156 4.203125 -2.796875 C 4.203125 -2.765625 4.175781 -2.726562 4.125 -2.6875 C 4.070312 -2.65625 4.007812 -2.601562 3.9375 -2.53125 C 3.613281 -2.0625 3.257812 -1.804688 2.875 -1.765625 C 2.5 -1.734375 2.097656 -1.773438 1.671875 -1.890625 C 1.597656 -1.816406 1.488281 -1.851562 1.34375 -2 C 0.914062 -2.101562 0.582031 -2.34375 0.34375 -2.71875 C 0.113281 -3.09375 -0.0507812 -3.550781 -0.15625 -4.09375 C -0.226562 -4.5625 -0.273438 -5.03125 -0.296875 -5.5 C -0.316406 -5.96875 -0.328125 -6.4375 -0.328125 -6.90625 C -0.285156 -7.625 -0.242188 -8.332031 -0.203125 -9.03125 C -0.171875 -9.726562 -0.140625 -10.421875 -0.109375 -11.109375 C -0.00390625 -11.640625 0.046875 -12.019531 0.046875 -12.25 C 0.046875 -12.488281 0.0625 -12.722656 0.09375 -12.953125 C 0.132812 -13.191406 0.226562 -13.546875 0.375 -14.015625 C 0.519531 -14.734375 0.609375 -15.234375 0.640625 -15.515625 C 0.679688 -15.804688 0.738281 -16.101562 0.8125 -16.40625 C 0.882812 -16.71875 1.046875 -17.210938 1.296875 -17.890625 C 1.328125 -18.078125 1.382812 -18.25 1.46875 -18.40625 C 1.5625 -18.570312 1.628906 -18.742188 1.671875 -18.921875 C 1.847656 -19.421875 2.023438 -19.882812 2.203125 -20.3125 C 2.390625 -20.75 2.585938 -21.179688 2.796875 -21.609375 C 2.910156 -21.972656 3.035156 -22.195312 3.171875 -22.28125 C 3.316406 -22.375 3.515625 -22.382812 3.765625 -22.3125 C 3.953125 -22.3125 4.160156 -22.289062 4.390625 -22.25 C 4.628906 -22.21875 4.875 -22.164062 5.125 -22.09375 C 5.300781 -22.0625 5.46875 -22.007812 5.625 -21.9375 C 5.789062 -21.863281 5.984375 -21.738281 6.203125 -21.5625 C 6.378906 -21.195312 6.601562 -20.878906 6.875 -20.609375 C 7.144531 -20.347656 7.40625 -20.054688 7.65625 -19.734375 C 7.90625 -19.296875 8.054688 -18.890625 8.109375 -18.515625 C 8.160156 -18.140625 8.097656 -17.703125 7.921875 -17.203125 C 7.847656 -16.835938 7.773438 -16.628906 7.703125 -16.578125 C 7.628906 -16.523438 7.566406 -16.476562 7.515625 -16.4375 C 7.460938 -16.40625 7.382812 -16.191406 7.28125 -15.796875 C 6.914062 -14.679688 6.460938 -13.644531 5.921875 -12.6875 C 5.390625 -11.738281 4.976562 -10.742188 4.6875 -9.703125 Z M 4.6875 -9.703125 "/></g></g><g style="fill:#000000;fill-opacity:1;"><g transform="translate(70.997365, 45.228816)"><path style="stroke:none" d="M 4.6875 -9.703125 C 4.46875 -9.054688 4.429688 -8.6875 4.578125 -8.59375 C 4.722656 -8.507812 4.945312 -8.582031 5.25 -8.8125 C 5.5625 -9.039062 5.847656 -9.332031 6.109375 -9.6875 C 6.378906 -10.050781 6.535156 -10.34375 6.578125 -10.5625 C 6.648438 -10.78125 6.789062 -11.140625 7 -11.640625 C 7.21875 -12.140625 7.46875 -12.6875 7.75 -13.28125 C 8.039062 -13.875 8.300781 -14.410156 8.53125 -14.890625 C 8.769531 -15.378906 8.945312 -15.695312 9.0625 -15.84375 C 9.238281 -16.09375 9.394531 -16.34375 9.53125 -16.59375 C 9.675781 -16.851562 9.820312 -17.109375 9.96875 -17.359375 C 10.363281 -17.859375 10.648438 -18.304688 10.828125 -18.703125 C 11.046875 -19.066406 11.335938 -19.285156 11.703125 -19.359375 C 11.878906 -19.359375 12.054688 -19.363281 12.234375 -19.375 C 12.410156 -19.394531 12.570312 -19.40625 12.71875 -19.40625 C 13.039062 -19.40625 13.3125 -19.296875 13.53125 -19.078125 C 13.75 -18.867188 13.925781 -18.582031 14.0625 -18.21875 L 14.0625 -18 L 14.453125 -15.796875 C 14.515625 -15.429688 14.535156 -15.066406 14.515625 -14.703125 C 14.503906 -14.347656 14.5 -13.992188 14.5 -13.640625 C 14.5 -13.390625 14.503906 -13.144531 14.515625 -12.90625 C 14.535156 -12.675781 14.53125 -12.4375 14.5 -12.1875 C 14.644531 -12.113281 14.71875 -12.03125 14.71875 -11.9375 C 14.71875 -11.851562 14.734375 -11.828125 14.765625 -11.859375 C 14.835938 -11.929688 14.945312 -11.945312 15.09375 -11.90625 C 15.238281 -11.875 15.328125 -11.875 15.359375 -11.90625 L 15.578125 -12.1875 C 15.679688 -12.257812 15.785156 -12.335938 15.890625 -12.421875 C 16.003906 -12.515625 16.113281 -12.632812 16.21875 -12.78125 C 16.363281 -13.03125 16.546875 -13.03125 16.765625 -12.78125 C 16.765625 -12.59375 16.691406 -12.445312 16.546875 -12.34375 L 16.390625 -12.078125 C 16.316406 -11.859375 16.207031 -11.734375 16.0625 -11.703125 L 15.90625 -11.53125 C 15.789062 -11.425781 15.734375 -11.375 15.734375 -11.375 L 15.578125 -11.265625 C 15.398438 -11.085938 15.203125 -11 14.984375 -11 C 14.835938 -11 14.675781 -10.925781 14.5 -10.78125 C 14.320312 -10.675781 14.175781 -10.675781 14.0625 -10.78125 C 13.882812 -10.882812 13.695312 -10.960938 13.5 -11.015625 C 13.300781 -11.078125 13.113281 -11.144531 12.9375 -11.21875 C 12.289062 -11.351562 11.820312 -11.851562 11.53125 -12.71875 C 11.382812 -13.21875 11.300781 -13.726562 11.28125 -14.25 C 11.269531 -14.78125 11.300781 -15.296875 11.375 -15.796875 C 11.445312 -16.046875 11.484375 -16.273438 11.484375 -16.484375 C 11.484375 -16.703125 11.5 -16.921875 11.53125 -17.140625 L 11.703125 -18.109375 C 11.804688 -18.285156 11.820312 -18.484375 11.75 -18.703125 C 11.644531 -18.703125 11.59375 -18.6875 11.59375 -18.65625 L 11.375 -18.375 L 10.625 -17.03125 C 10.476562 -16.78125 10.367188 -16.457031 10.296875 -16.0625 C 10.328125 -15.957031 10.316406 -15.859375 10.265625 -15.765625 C 10.210938 -15.671875 10.171875 -15.59375 10.140625 -15.53125 C 9.878906 -15.0625 9.648438 -14.597656 9.453125 -14.140625 C 9.253906 -13.691406 9.066406 -13.21875 8.890625 -12.71875 C 8.742188 -12.363281 8.585938 -12.015625 8.421875 -11.671875 C 8.265625 -11.328125 8.097656 -10.957031 7.921875 -10.5625 C 7.671875 -9.988281 7.410156 -9.441406 7.140625 -8.921875 C 6.867188 -8.398438 6.644531 -7.832031 6.46875 -7.21875 C 6.4375 -7.039062 6.363281 -6.84375 6.25 -6.625 C 6.144531 -6.414062 6.054688 -6.203125 5.984375 -5.984375 C 5.941406 -5.878906 5.796875 -5.582031 5.546875 -5.09375 C 5.296875 -4.601562 5.035156 -4.125 4.765625 -3.65625 C 4.492188 -3.195312 4.304688 -2.910156 4.203125 -2.796875 C 4.203125 -2.765625 4.175781 -2.726562 4.125 -2.6875 C 4.070312 -2.65625 4.007812 -2.601562 3.9375 -2.53125 C 3.613281 -2.0625 3.257812 -1.804688 2.875 -1.765625 C 2.5 -1.734375 2.097656 -1.773438 1.671875 -1.890625 C 1.597656 -1.816406 1.488281 -1.851562 1.34375 -2 C 0.914062 -2.101562 0.582031 -2.34375 0.34375 -2.71875 C 0.113281 -3.09375 -0.0507812 -3.550781 -0.15625 -4.09375 C -0.226562 -4.5625 -0.273438 -5.03125 -0.296875 -5.5 C -0.316406 -5.96875 -0.328125 -6.4375 -0.328125 -6.90625 C -0.285156 -7.625 -0.242188 -8.332031 -0.203125 -9.03125 C -0.171875 -9.726562 -0.140625 -10.421875 -0.109375 -11.109375 C -0.00390625 -11.640625 0.046875 -12.019531 0.046875 -12.25 C 0.046875 -12.488281 0.0625 -12.722656 0.09375 -12.953125 C 0.132812 -13.191406 0.226562 -13.546875 0.375 -14.015625 C 0.519531 -14.734375 0.609375 -15.234375 0.640625 -15.515625 C 0.679688 -15.804688 0.738281 -16.101562 0.8125 -16.40625 C 0.882812 -16.71875 1.046875 -17.210938 1.296875 -17.890625 C 1.328125 -18.078125 1.382812 -18.25 1.46875 -18.40625 C 1.5625 -18.570312 1.628906 -18.742188 1.671875 -18.921875 C 1.847656 -19.421875 2.023438 -19.882812 2.203125 -20.3125 C 2.390625 -20.75 2.585938 -21.179688 2.796875 -21.609375 C 2.910156 -21.972656 3.035156 -22.195312 3.171875 -22.28125 C 3.316406 -22.375 3.515625 -22.382812 3.765625 -22.3125 C 3.953125 -22.3125 4.160156 -22.289062 4.390625 -22.25 C 4.628906 -22.21875 4.875 -22.164062 5.125 -22.09375 C 5.300781 -22.0625 5.46875 -22.007812 5.625 -21.9375 C 5.789062 -21.863281 5.984375 -21.738281 6.203125 -21.5625 C 6.378906 -21.195312 6.601562 -20.878906 6.875 -20.609375 C 7.144531 -20.347656 7.40625 -20.054688 7.65625 -19.734375 C 7.90625 -19.296875 8.054688 -18.890625 8.109375 -18.515625 C 8.160156 -18.140625 8.097656 -17.703125 7.921875 -17.203125 C 7.847656 -16.835938 7.773438 -16.628906 7.703125 -16.578125 C 7.628906 -16.523438 7.566406 -16.476562 7.515625 -16.4375 C 7.460938 -16.40625 7.382812 -16.191406 7.28125 -15.796875 C 6.914062 -14.679688 6.460938 -13.644531 5.921875 -12.6875 C 5.390625 -11.738281 4.976562 -10.742188 4.6875 -9.703125 Z M 4.6875 -9.703125 "/></g></g><g style="fill:#000000;fill-opacity:1;"><g transform="translate(89.43387, 45.228816)"><path style="stroke:none" d="M 19.140625 -12.5625 L 19.296875 -12.671875 C 19.472656 -12.628906 19.632812 -12.5625 19.78125 -12.46875 C 19.925781 -12.382812 20.070312 -12.269531 20.21875 -12.125 C 20.175781 -11.945312 20.054688 -11.613281 19.859375 -11.125 C 19.660156 -10.644531 19.492188 -10.347656 19.359375 -10.234375 C 19.285156 -10.203125 19.226562 -10.160156 19.1875 -10.109375 C 19.15625 -10.054688 19.101562 -10.007812 19.03125 -9.96875 L 18.4375 -9.265625 C 18.394531 -9.234375 18.335938 -9.179688 18.265625 -9.109375 C 18.203125 -9.035156 18.148438 -8.960938 18.109375 -8.890625 C 18.003906 -8.640625 17.789062 -8.425781 17.46875 -8.25 C 17.320312 -8.175781 17.234375 -8.101562 17.203125 -8.03125 C 17.054688 -7.851562 16.882812 -7.679688 16.6875 -7.515625 C 16.488281 -7.359375 16.300781 -7.1875 16.125 -7 C 15.832031 -6.75 15.488281 -6.570312 15.09375 -6.46875 C 14.84375 -6.4375 14.609375 -6.398438 14.390625 -6.359375 C 14.171875 -6.328125 13.957031 -6.273438 13.75 -6.203125 C 13.5625 -6.128906 13.359375 -6.082031 13.140625 -6.0625 C 12.929688 -6.039062 12.71875 -5.992188 12.5 -5.921875 L 12.015625 -5.921875 C 11.691406 -6.035156 11.378906 -6.132812 11.078125 -6.21875 C 10.773438 -6.3125 10.476562 -6.46875 10.1875 -6.6875 L 9.921875 -6.84375 C 9.671875 -6.945312 9.4375 -7.070312 9.21875 -7.21875 C 9 -7.363281 8.800781 -7.546875 8.625 -7.765625 C 8.15625 -7.515625 7.78125 -7.28125 7.5 -7.0625 L 6.90625 -6.6875 C 6.863281 -6.6875 6.832031 -6.675781 6.8125 -6.65625 C 6.800781 -6.632812 6.796875 -6.625 6.796875 -6.625 C 6.648438 -6.414062 6.46875 -6.273438 6.25 -6.203125 C 6.03125 -6.128906 5.816406 -6.054688 5.609375 -5.984375 C 4.773438 -5.734375 4.035156 -5.785156 3.390625 -6.140625 C 3.253906 -6.210938 3.117188 -6.285156 2.984375 -6.359375 C 2.859375 -6.429688 2.726562 -6.484375 2.59375 -6.515625 C 1.039062 -7.171875 0.175781 -8.34375 0 -10.03125 C -0.101562 -10.851562 0.0390625 -11.660156 0.4375 -12.453125 C 0.613281 -12.804688 0.804688 -13.15625 1.015625 -13.5 C 1.234375 -13.84375 1.46875 -14.160156 1.71875 -14.453125 C 1.71875 -14.484375 1.753906 -14.535156 1.828125 -14.609375 C 2.191406 -15.148438 2.578125 -15.679688 2.984375 -16.203125 C 3.398438 -16.722656 3.804688 -17.21875 4.203125 -17.6875 C 4.816406 -18.332031 5.5 -18.890625 6.25 -19.359375 C 6.394531 -19.421875 6.554688 -19.453125 6.734375 -19.453125 C 6.910156 -19.492188 7.082031 -19.519531 7.25 -19.53125 C 7.414062 -19.550781 7.585938 -19.5625 7.765625 -19.5625 L 7.921875 -19.5625 C 8.097656 -19.488281 8.285156 -19.441406 8.484375 -19.421875 C 8.679688 -19.410156 8.875 -19.367188 9.0625 -19.296875 C 9.195312 -19.222656 9.300781 -19.1875 9.375 -19.1875 C 9.519531 -19.15625 9.644531 -19.128906 9.75 -19.109375 C 9.863281 -19.085938 9.9375 -19.023438 9.96875 -18.921875 C 10.007812 -18.878906 10.035156 -18.859375 10.046875 -18.859375 C 10.066406 -18.859375 10.078125 -18.859375 10.078125 -18.859375 C 10.222656 -18.859375 10.347656 -18.8125 10.453125 -18.71875 C 10.566406 -18.632812 10.691406 -18.59375 10.828125 -18.59375 C 10.941406 -18.59375 11.035156 -18.554688 11.109375 -18.484375 C 11.285156 -18.347656 11.453125 -18.195312 11.609375 -18.03125 C 11.773438 -17.863281 11.910156 -17.691406 12.015625 -17.515625 L 12.1875 -17.09375 C 12.289062 -16.625 12.128906 -16.265625 11.703125 -16.015625 C 11.441406 -15.898438 11.203125 -15.769531 10.984375 -15.625 C 10.773438 -15.488281 10.5625 -15.328125 10.34375 -15.140625 L 10.34375 -15.09375 C 10.0625 -14.800781 9.757812 -14.507812 9.4375 -14.21875 C 9.113281 -13.9375 8.828125 -13.617188 8.578125 -13.265625 L 7.921875 -12.5625 C 7.671875 -12.3125 7.445312 -12.03125 7.25 -11.71875 C 7.050781 -11.414062 6.84375 -11.117188 6.625 -10.828125 L 6.09375 -10.078125 C 6.019531 -10.003906 5.945312 -9.894531 5.875 -9.75 C 5.550781 -9.175781 5.335938 -8.585938 5.234375 -7.984375 C 5.234375 -7.984375 5.234375 -7.910156 5.234375 -7.765625 L 5.4375 -7.921875 C 5.726562 -8.210938 6.015625 -8.484375 6.296875 -8.734375 C 6.585938 -8.984375 6.894531 -9.234375 7.21875 -9.484375 C 7.582031 -9.773438 7.851562 -10.082031 8.03125 -10.40625 L 8.46875 -10.890625 C 8.644531 -11.066406 8.800781 -11.253906 8.9375 -11.453125 C 9.082031 -11.648438 9.226562 -11.859375 9.375 -12.078125 L 10.515625 -13.90625 C 11.046875 -13.976562 11.441406 -13.851562 11.703125 -13.53125 L 12.015625 -13.203125 C 12.203125 -12.953125 12.320312 -12.703125 12.375 -12.453125 C 12.425781 -12.203125 12.46875 -11.929688 12.5 -11.640625 C 12.5 -11.609375 12.460938 -11.519531 12.390625 -11.375 L 11.640625 -9.859375 C 11.492188 -9.503906 11.441406 -9.128906 11.484375 -8.734375 C 11.628906 -8.234375 11.789062 -7.785156 11.96875 -7.390625 C 12.070312 -7.203125 12.234375 -7.109375 12.453125 -7.109375 C 12.628906 -7.148438 12.816406 -7.1875 13.015625 -7.21875 C 13.210938 -7.257812 13.398438 -7.316406 13.578125 -7.390625 C 13.765625 -7.460938 13.945312 -7.539062 14.125 -7.625 C 14.300781 -7.71875 14.460938 -7.816406 14.609375 -7.921875 L 15.796875 -8.625 L 16.65625 -9.375 C 17.019531 -9.738281 17.429688 -10.269531 17.890625 -10.96875 C 18.359375 -11.664062 18.773438 -12.195312 19.140625 -12.5625 Z M 19.140625 -12.5625 "/></g></g><g style="fill:#000000;fill-opacity:1;"><g transform="translate(108.139919, 45.228816)"><path style="stroke:none" d="M 11.703125 -13.640625 C 11.554688 -13.421875 11.390625 -13.210938 11.203125 -13.015625 C 11.023438 -12.816406 10.847656 -12.628906 10.671875 -12.453125 C 10.316406 -12.054688 9.929688 -11.648438 9.515625 -11.234375 C 9.097656 -10.828125 8.75 -10.40625 8.46875 -9.96875 C 8.207031 -9.644531 7.929688 -9.320312 7.640625 -9 C 7.359375 -8.675781 7.078125 -8.367188 6.796875 -8.078125 C 6.472656 -7.753906 6.164062 -7.34375 5.875 -6.84375 C 5.726562 -6.625 5.601562 -6.425781 5.5 -6.25 C 5.394531 -6.070312 5.269531 -5.910156 5.125 -5.765625 C 4.90625 -5.585938 4.757812 -5.410156 4.6875 -5.234375 C 4.507812 -5.046875 4.3125 -4.617188 4.09375 -3.953125 C 3.875 -3.296875 3.65625 -2.632812 3.4375 -1.96875 C 3.226562 -1.300781 3.050781 -0.878906 2.90625 -0.703125 C 2.695312 -0.484375 2.460938 -0.375 2.203125 -0.375 C 2.066406 -0.375 1.816406 -0.285156 1.453125 -0.109375 C 1.304688 -0.00390625 1.144531 0.0546875 0.96875 0.078125 C 0.789062 0.0976562 0.664062 0.0859375 0.59375 0.046875 C 0.300781 -0.015625 0.00390625 -0.046875 -0.296875 -0.046875 C -0.597656 -0.046875 -0.894531 -0.0664062 -1.1875 -0.109375 C -1.363281 -0.179688 -1.539062 -0.21875 -1.71875 -0.21875 C -1.90625 -0.21875 -2.085938 -0.234375 -2.265625 -0.265625 C -2.660156 -0.410156 -2.960938 -0.679688 -3.171875 -1.078125 C -3.390625 -1.472656 -3.445312 -1.957031 -3.34375 -2.53125 C -3.125 -3.5 -2.890625 -4.476562 -2.640625 -5.46875 C -2.390625 -6.457031 -2.082031 -7.457031 -1.71875 -8.46875 C -1.539062 -8.96875 -1.351562 -9.46875 -1.15625 -9.96875 C -0.957031 -10.476562 -0.734375 -10.960938 -0.484375 -11.421875 C 0.0546875 -12.785156 0.648438 -14.132812 1.296875 -15.46875 C 1.578125 -16.039062 1.890625 -16.601562 2.234375 -17.15625 C 2.578125 -17.71875 2.894531 -18.253906 3.1875 -18.765625 C 3.363281 -19.085938 3.539062 -19.410156 3.71875 -19.734375 C 3.894531 -20.054688 4.054688 -20.378906 4.203125 -20.703125 C 4.492188 -21.242188 4.691406 -21.726562 4.796875 -22.15625 C 4.796875 -22.226562 4.800781 -22.289062 4.8125 -22.34375 C 4.832031 -22.394531 4.84375 -22.457031 4.84375 -22.53125 C 5.132812 -22.707031 5.351562 -22.691406 5.5 -22.484375 C 5.894531 -22.015625 6.378906 -21.691406 6.953125 -21.515625 C 7.054688 -21.515625 7.144531 -21.421875 7.21875 -21.234375 L 8.03125 -20.15625 C 8.175781 -19.945312 8.253906 -19.707031 8.265625 -19.4375 C 8.285156 -19.164062 8.28125 -18.882812 8.25 -18.59375 C 8.207031 -17.59375 8.039062 -16.597656 7.75 -15.609375 C 7.46875 -14.617188 7.078125 -13.601562 6.578125 -12.5625 C 6.359375 -12.09375 6.238281 -11.8125 6.21875 -11.71875 C 6.207031 -11.632812 6.054688 -11.375 5.765625 -10.9375 C 5.410156 -10.363281 5.3125 -9.929688 5.46875 -9.640625 C 5.632812 -9.359375 5.894531 -9.304688 6.25 -9.484375 C 6.789062 -9.984375 7.164062 -10.359375 7.375 -10.609375 C 7.59375 -10.867188 7.957031 -11.285156 8.46875 -11.859375 C 9.070312 -12.609375 9.582031 -13.160156 10 -13.515625 C 10.414062 -13.878906 10.910156 -14.390625 11.484375 -15.046875 L 12.5 -16.125 C 12.757812 -16.550781 13.140625 -16.816406 13.640625 -16.921875 L 14.171875 -16.921875 C 14.535156 -16.890625 14.878906 -16.875 15.203125 -16.875 C 15.523438 -16.875 15.847656 -16.835938 16.171875 -16.765625 C 16.421875 -16.722656 16.617188 -16.617188 16.765625 -16.453125 C 16.910156 -16.296875 17.035156 -16.128906 17.140625 -15.953125 C 17.285156 -15.703125 17.359375 -15.429688 17.359375 -15.140625 C 17.429688 -14.742188 17.472656 -14.375 17.484375 -14.03125 C 17.503906 -13.695312 17.460938 -13.332031 17.359375 -12.9375 C 17.253906 -12.4375 17.164062 -11.992188 17.09375 -11.609375 C 17.019531 -11.234375 16.910156 -10.796875 16.765625 -10.296875 C 16.617188 -9.722656 16.519531 -8.957031 16.46875 -8 C 16.414062 -7.050781 16.40625 -6.328125 16.4375 -5.828125 C 16.476562 -5.390625 16.660156 -5.113281 16.984375 -5 C 17.304688 -4.894531 17.65625 -4.878906 18.03125 -4.953125 C 18.40625 -5.023438 18.679688 -5.097656 18.859375 -5.171875 C 19.003906 -5.242188 19.140625 -5.316406 19.265625 -5.390625 C 19.390625 -5.460938 19.523438 -5.515625 19.671875 -5.546875 C 20.035156 -5.765625 20.484375 -6.078125 21.015625 -6.484375 C 21.554688 -6.898438 22.078125 -7.332031 22.578125 -7.78125 C 23.085938 -8.238281 23.46875 -8.628906 23.71875 -8.953125 C 23.789062 -9.023438 23.976562 -9.1875 24.28125 -9.4375 C 24.59375 -9.6875 24.898438 -9.9375 25.203125 -10.1875 C 25.503906 -10.4375 25.691406 -10.597656 25.765625 -10.671875 C 25.984375 -10.992188 26.128906 -11.269531 26.203125 -11.5 C 26.273438 -11.738281 26.414062 -12.003906 26.625 -12.296875 C 26.695312 -12.359375 26.742188 -12.425781 26.765625 -12.5 C 26.785156 -12.570312 26.847656 -12.664062 26.953125 -12.78125 C 26.953125 -12.632812 26.96875 -12.539062 27 -12.5 C 27.039062 -12.363281 27.039062 -12.226562 27 -12.09375 C 26.96875 -11.96875 26.96875 -11.816406 27 -11.640625 C 27 -11.460938 27 -11.410156 27 -11.484375 C 27 -11.554688 26.96875 -11.5 26.90625 -11.3125 C 26.757812 -11.132812 26.6875 -10.90625 26.6875 -10.625 C 26.644531 -10.363281 26.535156 -10.09375 26.359375 -9.8125 C 26.109375 -9.445312 25.859375 -9.03125 25.609375 -8.5625 C 25.359375 -8.101562 25.101562 -7.726562 24.84375 -7.4375 C 24.707031 -7.289062 24.421875 -6.984375 23.984375 -6.515625 C 23.554688 -6.054688 23.132812 -5.59375 22.71875 -5.125 C 22.300781 -4.65625 22.003906 -4.347656 21.828125 -4.203125 C 21.722656 -4.097656 21.597656 -4.007812 21.453125 -3.9375 C 21.304688 -3.863281 21.160156 -3.789062 21.015625 -3.71875 L 20.375 -3.5 C 20.125 -3.394531 19.691406 -3.316406 19.078125 -3.265625 C 18.472656 -3.210938 17.863281 -3.191406 17.25 -3.203125 C 16.632812 -3.222656 16.164062 -3.285156 15.84375 -3.390625 C 13.539062 -4.148438 12.375 -6.054688 12.34375 -9.109375 C 12.375 -9.472656 12.398438 -9.816406 12.421875 -10.140625 C 12.441406 -10.460938 12.453125 -10.800781 12.453125 -11.15625 C 12.523438 -11.550781 12.578125 -12.019531 12.609375 -12.5625 C 12.648438 -13.101562 12.609375 -13.523438 12.484375 -13.828125 C 12.359375 -14.128906 12.097656 -14.066406 11.703125 -13.640625 Z M 11.703125 -13.640625 "/></g></g><g style="fill:#000000;fill-opacity:1;"><g transform="translate(134.393074, 45.228816)"><path style="stroke:none" d="M 14.5 -10.140625 L 15.53125 -12.453125 C 15.664062 -12.410156 15.804688 -12.414062 15.953125 -12.46875 C 16.097656 -12.53125 16.15625 -12.523438 16.125 -12.453125 C 16.125 -12.304688 16.09375 -12.207031 16.03125 -12.15625 C 15.976562 -12.101562 15.972656 -12.003906 16.015625 -11.859375 C 16.046875 -11.785156 16.003906 -11.59375 15.890625 -11.28125 C 15.785156 -10.976562 15.679688 -10.679688 15.578125 -10.390625 C 15.472656 -10.109375 15.398438 -9.929688 15.359375 -9.859375 L 14.34375 -7.28125 L 12.890625 -4.53125 C 12.847656 -4.414062 12.671875 -4.171875 12.359375 -3.796875 C 12.054688 -3.421875 11.722656 -3.007812 11.359375 -2.5625 C 11.003906 -2.113281 10.679688 -1.707031 10.390625 -1.34375 C 10.109375 -0.988281 9.929688 -0.773438 9.859375 -0.703125 C 9.503906 -0.453125 9.070312 -0.0546875 8.5625 0.484375 C 8.0625 1.023438 7.648438 1.398438 7.328125 1.609375 C 7.109375 1.753906 6.691406 1.9375 6.078125 2.15625 C 5.472656 2.375 5.082031 2.5 4.90625 2.53125 C 4.539062 2.570312 4.175781 2.59375 3.8125 2.59375 C 3.457031 2.59375 3.117188 2.554688 2.796875 2.484375 C 2.222656 2.410156 1.59375 2.039062 0.90625 1.375 C 0.226562 0.707031 -0.25 0.101562 -0.53125 -0.4375 C -0.675781 -0.6875 -0.820312 -0.925781 -0.96875 -1.15625 C -1.113281 -1.394531 -1.222656 -1.640625 -1.296875 -1.890625 C -1.398438 -2.242188 -1.488281 -2.671875 -1.5625 -3.171875 C -1.632812 -3.679688 -1.6875 -4.132812 -1.71875 -4.53125 C -1.71875 -5.675781 -1.679688 -6.617188 -1.609375 -7.359375 C -1.546875 -8.097656 -1.441406 -8.769531 -1.296875 -9.375 C -1.148438 -9.988281 -0.957031 -10.65625 -0.71875 -11.375 C -0.488281 -12.09375 -0.210938 -12.988281 0.109375 -14.0625 L 0.375 -15.140625 C 0.414062 -15.328125 0.46875 -15.519531 0.53125 -15.71875 C 0.601562 -15.914062 0.660156 -16.082031 0.703125 -16.21875 L 1.1875 -17.953125 C 1.289062 -18.347656 1.457031 -18.804688 1.6875 -19.328125 C 1.925781 -19.847656 2.070312 -20.3125 2.125 -20.71875 C 2.175781 -21.132812 1.988281 -21.378906 1.5625 -21.453125 C 1.382812 -21.492188 1.210938 -21.515625 1.046875 -21.515625 C 0.890625 -21.515625 0.71875 -21.582031 0.53125 -21.71875 L -0.4375 -22.3125 C -0.46875 -22.382812 -0.519531 -22.445312 -0.59375 -22.5 C -0.664062 -22.5625 -0.71875 -22.660156 -0.75 -22.796875 C -0.601562 -22.867188 -0.515625 -22.90625 -0.484375 -22.90625 L 1.71875 -23.390625 C 1.976562 -23.460938 2.238281 -23.507812 2.5 -23.53125 C 2.769531 -23.550781 3.03125 -23.578125 3.28125 -23.609375 C 3.570312 -23.679688 3.753906 -23.828125 3.828125 -24.046875 C 3.898438 -24.253906 4 -24.457031 4.125 -24.65625 C 4.25 -24.851562 4.328125 -25.078125 4.359375 -25.328125 C 4.648438 -25.835938 4.898438 -26.359375 5.109375 -26.890625 C 5.328125 -27.429688 5.582031 -27.9375 5.875 -28.40625 C 6.164062 -28.84375 6.441406 -29.25 6.703125 -29.625 C 6.972656 -30 7.289062 -30.347656 7.65625 -30.671875 L 8.03125 -31.109375 C 8.28125 -31.285156 8.515625 -31.351562 8.734375 -31.3125 C 8.910156 -31.28125 9.078125 -31.28125 9.234375 -31.3125 C 9.398438 -31.351562 9.570312 -31.375 9.75 -31.375 C 9.789062 -31.375 9.828125 -31.390625 9.859375 -31.421875 C 10.253906 -31.492188 10.53125 -31.457031 10.6875 -31.3125 C 10.851562 -31.175781 10.992188 -30.960938 11.109375 -30.671875 C 11.359375 -30.171875 11.484375 -29.597656 11.484375 -28.953125 C 11.484375 -28.804688 11.488281 -28.660156 11.5 -28.515625 C 11.519531 -28.367188 11.550781 -28.222656 11.59375 -28.078125 C 11.664062 -27.867188 11.664062 -27.617188 11.59375 -27.328125 L 11.421875 -26.46875 L 11.109375 -25.171875 C 11.109375 -24.992188 11.085938 -24.851562 11.046875 -24.75 C 11.160156 -24.675781 11.34375 -24.640625 11.59375 -24.640625 L 13.578125 -24.796875 L 16.390625 -24.796875 C 16.566406 -24.796875 16.734375 -24.773438 16.890625 -24.734375 C 17.054688 -24.703125 17.226562 -24.671875 17.40625 -24.640625 L 17.203125 -24.3125 L 16.8125 -24.046875 L 15.625 -23.5 C 15.625 -23.46875 15.613281 -23.453125 15.59375 -23.453125 C 15.582031 -23.453125 15.578125 -23.453125 15.578125 -23.453125 C 15.285156 -23.410156 14.976562 -23.34375 14.65625 -23.25 C 14.332031 -23.164062 14.007812 -23.140625 13.6875 -23.171875 C 13.332031 -23.171875 12.957031 -23.117188 12.5625 -23.015625 C 12.445312 -22.984375 12.328125 -22.957031 12.203125 -22.9375 C 12.078125 -22.914062 11.960938 -22.890625 11.859375 -22.859375 L 10.625 -22.6875 C 10.4375 -22.65625 10.289062 -22.515625 10.1875 -22.265625 L 10.078125 -22.09375 C 9.753906 -21.195312 9.394531 -20.304688 9 -19.421875 C 8.601562 -18.546875 8.226562 -17.660156 7.875 -16.765625 L 7.59375 -16.171875 C 7.457031 -15.921875 7.332031 -15.660156 7.21875 -15.390625 C 7.113281 -15.117188 7.023438 -14.835938 6.953125 -14.546875 C 6.878906 -14.296875 6.78125 -14.050781 6.65625 -13.8125 C 6.53125 -13.582031 6.394531 -13.363281 6.25 -13.15625 C 6.144531 -12.976562 6.082031 -12.769531 6.0625 -12.53125 C 6.039062 -12.300781 5.960938 -12.09375 5.828125 -11.90625 C 5.640625 -11.476562 5.445312 -10.796875 5.25 -9.859375 C 5.050781 -8.929688 4.890625 -7.960938 4.765625 -6.953125 C 4.640625 -5.941406 4.597656 -5.097656 4.640625 -4.421875 C 4.671875 -3.984375 4.726562 -3.554688 4.8125 -3.140625 C 4.90625 -2.734375 5.023438 -2.332031 5.171875 -1.9375 C 5.242188 -1.789062 5.320312 -1.671875 5.40625 -1.578125 C 5.5 -1.492188 5.582031 -1.398438 5.65625 -1.296875 C 5.695312 -1.296875 5.734375 -1.285156 5.765625 -1.265625 C 5.804688 -1.242188 5.84375 -1.234375 5.875 -1.234375 C 6.125 -1.234375 6.445312 -1.242188 6.84375 -1.265625 C 7.238281 -1.285156 7.5625 -1.367188 7.8125 -1.515625 C 7.925781 -1.578125 8.144531 -1.734375 8.46875 -1.984375 C 8.789062 -2.242188 9.113281 -2.507812 9.4375 -2.78125 C 9.757812 -3.050781 9.972656 -3.21875 10.078125 -3.28125 C 10.367188 -3.570312 10.726562 -3.953125 11.15625 -4.421875 C 11.59375 -4.890625 12.003906 -5.375 12.390625 -5.875 C 12.785156 -6.375 13.078125 -6.804688 13.265625 -7.171875 C 13.515625 -7.640625 13.71875 -8.140625 13.875 -8.671875 C 14.039062 -9.210938 14.25 -9.703125 14.5 -10.140625 Z M 9.109375 -24.953125 L 9.4375 -26.625 L 9.59375 -27.390625 L 9.8125 -28.671875 C 9.84375 -28.929688 9.847656 -29.175781 9.828125 -29.40625 C 9.816406 -29.632812 9.789062 -29.878906 9.75 -30.140625 C 9.6875 -30.390625 9.582031 -30.441406 9.4375 -30.296875 C 9.320312 -30.222656 9.226562 -30.148438 9.15625 -30.078125 C 9.09375 -30.003906 9.023438 -29.894531 8.953125 -29.75 C 8.835938 -29.539062 8.734375 -29.316406 8.640625 -29.078125 C 8.554688 -28.847656 8.476562 -28.609375 8.40625 -28.359375 L 8.1875 -27.875 L 7.875 -27.171875 C 7.832031 -26.921875 7.773438 -26.640625 7.703125 -26.328125 C 7.628906 -26.023438 7.5625 -25.726562 7.5 -25.4375 C 7.425781 -24.976562 7.503906 -24.65625 7.734375 -24.46875 C 7.960938 -24.289062 8.222656 -24.242188 8.515625 -24.328125 C 8.804688 -24.421875 9.003906 -24.628906 9.109375 -24.953125 Z M 6.6875 -17.890625 C 6.863281 -18.398438 7.023438 -18.832031 7.171875 -19.1875 C 7.316406 -19.550781 7.515625 -19.96875 7.765625 -20.4375 C 8.046875 -21.113281 8.160156 -21.640625 8.109375 -22.015625 C 8.054688 -22.398438 7.582031 -22.300781 6.6875 -21.71875 C 6.394531 -20.820312 6.164062 -20.023438 6 -19.328125 C 5.84375 -18.628906 5.640625 -17.863281 5.390625 -17.03125 C 5.097656 -15.914062 4.960938 -15.234375 4.984375 -14.984375 C 5.003906 -14.734375 5.113281 -14.75 5.3125 -15.03125 C 5.507812 -15.320312 5.742188 -15.742188 6.015625 -16.296875 C 6.285156 -16.859375 6.507812 -17.390625 6.6875 -17.890625 Z M 6.6875 -17.890625 "/></g></g><g clip-rule="nonzero" clip-path="url(#b830abff72)"><g style="fill:#000000;fill-opacity:1;"><g transform="translate(149.541197, 45.228816)"><path style="stroke:none" d="M 1.03125 6.796875 L 0.8125 6.953125 C 0.988281 6.703125 1.15625 6.476562 1.3125 6.28125 C 1.476562 6.082031 1.632812 5.875 1.78125 5.65625 C 1.664062 5.65625 1.582031 5.664062 1.53125 5.6875 C 1.476562 5.707031 1.328125 5.804688 1.078125 5.984375 L 1.078125 5.828125 C 1.003906 5.785156 0.953125 5.726562 0.921875 5.65625 C 0.878906 5.695312 0.820312 5.734375 0.75 5.765625 C 0.675781 5.804688 0.625 5.859375 0.59375 5.921875 C 0.445312 6.035156 0.3125 6.109375 0.1875 6.140625 C 0.0625 6.179688 -0.0859375 6.238281 -0.265625 6.3125 C -0.335938 6.34375 -0.460938 6.320312 -0.640625 6.25 L -0.53125 5.984375 C -0.601562 5.984375 -0.675781 6 -0.75 6.03125 C -0.820312 6.070312 -0.894531 6.09375 -0.96875 6.09375 C -1.007812 6.195312 -1.097656 6.25 -1.234375 6.25 C -1.597656 6.46875 -1.890625 6.378906 -2.109375 5.984375 C -2.140625 5.804688 -2.179688 5.644531 -2.234375 5.5 C -2.285156 5.351562 -2.367188 5.226562 -2.484375 5.125 C -2.617188 4.90625 -2.710938 4.660156 -2.765625 4.390625 C -2.828125 4.117188 -2.894531 3.84375 -2.96875 3.5625 C -2.96875 3.238281 -2.910156 2.945312 -2.796875 2.6875 C -2.722656 2.332031 -2.601562 2 -2.4375 1.6875 C -2.28125 1.382812 -2.097656 1.070312 -1.890625 0.75 C -0.984375 -0.539062 -0.046875 -1.617188 0.921875 -2.484375 C 1.597656 -3.128906 2.046875 -3.648438 2.265625 -4.046875 C 2.484375 -4.441406 2.546875 -4.816406 2.453125 -5.171875 C 2.359375 -5.535156 2.207031 -5.984375 2 -6.515625 C 1.851562 -7.128906 1.65625 -7.6875 1.40625 -8.1875 C 1.15625 -8.695312 0.882812 -9.1875 0.59375 -9.65625 C 0.550781 -9.757812 0.503906 -9.851562 0.453125 -9.9375 C 0.398438 -10.03125 0.359375 -10.128906 0.328125 -10.234375 C 0.179688 -10.492188 -0.015625 -11.007812 -0.265625 -11.78125 C -0.515625 -12.550781 -0.726562 -13.335938 -0.90625 -14.140625 C -1.09375 -14.953125 -1.1875 -15.519531 -1.1875 -15.84375 C -1.113281 -15.914062 -1.078125 -15.976562 -1.078125 -16.03125 C -1.078125 -16.09375 -1.0625 -16.175781 -1.03125 -16.28125 C -1.0625 -16.5625 -0.96875 -16.882812 -0.75 -17.25 C -0.71875 -17.320312 -0.679688 -17.425781 -0.640625 -17.5625 C -0.609375 -17.707031 -0.628906 -17.851562 -0.703125 -18 C -0.628906 -18.144531 -0.566406 -18.296875 -0.515625 -18.453125 C -0.460938 -18.617188 -0.398438 -18.773438 -0.328125 -18.921875 C -0.253906 -19.066406 -0.1875 -19.191406 -0.125 -19.296875 C -0.0703125 -19.398438 -0.03125 -19.523438 0 -19.671875 C 0.0703125 -19.742188 0.125 -19.820312 0.15625 -19.90625 C 0.195312 -20 0.253906 -20.082031 0.328125 -20.15625 L 0.8125 -21.125 C 0.914062 -21.34375 1.039062 -21.539062 1.1875 -21.71875 C 1.332031 -21.90625 1.457031 -22.085938 1.5625 -22.265625 C 1.59375 -22.296875 1.664062 -22.347656 1.78125 -22.421875 C 1.925781 -22.535156 2.035156 -22.660156 2.109375 -22.796875 C 2.285156 -23.015625 2.410156 -23.085938 2.484375 -23.015625 C 2.878906 -22.867188 3.203125 -22.65625 3.453125 -22.375 C 3.453125 -22.375 3.457031 -22.375 3.46875 -22.375 C 3.488281 -22.375 3.519531 -22.351562 3.5625 -22.3125 C 3.738281 -22.238281 3.925781 -22.015625 4.125 -21.640625 C 4.320312 -21.265625 4.507812 -20.859375 4.6875 -20.421875 C 4.863281 -19.992188 4.953125 -19.65625 4.953125 -19.40625 C 4.953125 -19.1875 4.988281 -19.039062 5.0625 -18.96875 C 5.0625 -18.832031 5.0625 -18.679688 5.0625 -18.515625 C 5.0625 -18.359375 5.023438 -18.1875 4.953125 -18 C 4.921875 -17.789062 4.867188 -17.554688 4.796875 -17.296875 C 4.722656 -17.046875 4.632812 -16.816406 4.53125 -16.609375 C 4.382812 -16.347656 4.257812 -16.203125 4.15625 -16.171875 C 4.007812 -16.066406 3.863281 -15.882812 3.71875 -15.625 C 3.6875 -15.5625 3.632812 -15.484375 3.5625 -15.390625 C 3.488281 -15.296875 3.46875 -15.179688 3.5 -15.046875 C 3.5 -15.046875 3.5 -15.023438 3.5 -14.984375 C 3.5 -14.953125 3.484375 -14.914062 3.453125 -14.875 L 3.015625 -14.015625 C 2.910156 -13.765625 2.859375 -13.429688 2.859375 -13.015625 C 2.859375 -12.597656 2.894531 -12.285156 2.96875 -12.078125 C 3.039062 -11.929688 3.128906 -11.796875 3.234375 -11.671875 C 3.335938 -11.546875 3.425781 -11.445312 3.5 -11.375 C 3.75 -11.195312 3.972656 -10.878906 4.171875 -10.421875 C 4.367188 -9.972656 4.578125 -9.535156 4.796875 -9.109375 C 5.015625 -8.679688 5.210938 -8.359375 5.390625 -8.140625 C 5.535156 -8.035156 5.625 -7.863281 5.65625 -7.625 C 5.695312 -7.394531 5.769531 -7.222656 5.875 -7.109375 C 6.050781 -6.710938 6.328125 -6.5625 6.703125 -6.65625 C 7.085938 -6.75 7.53125 -6.925781 8.03125 -7.1875 C 8.53125 -7.457031 9.015625 -7.648438 9.484375 -7.765625 C 9.878906 -8.046875 10.28125 -8.335938 10.6875 -8.640625 C 11.101562 -8.953125 11.507812 -9.269531 11.90625 -9.59375 C 12.488281 -10.019531 13.066406 -10.488281 13.640625 -11 C 13.816406 -11.175781 13.992188 -11.351562 14.171875 -11.53125 C 14.359375 -11.71875 14.519531 -11.898438 14.65625 -12.078125 L 15.46875 -12.984375 L 15.6875 -12.453125 C 15.757812 -12.304688 15.796875 -12.148438 15.796875 -11.984375 C 15.796875 -11.828125 15.738281 -11.660156 15.625 -11.484375 C 15.59375 -11.410156 15.554688 -11.335938 15.515625 -11.265625 C 15.484375 -11.191406 15.46875 -11.117188 15.46875 -11.046875 C 15.363281 -10.691406 15.203125 -10.351562 14.984375 -10.03125 C 14.835938 -9.882812 14.71875 -9.710938 14.625 -9.515625 C 14.539062 -9.316406 14.425781 -9.128906 14.28125 -8.953125 L 13.578125 -8.296875 L 12.453125 -7.328125 L 12.234375 -7.109375 C 11.953125 -6.972656 11.664062 -6.773438 11.375 -6.515625 C 11.082031 -6.265625 10.796875 -6.035156 10.515625 -5.828125 L 9.921875 -5.34375 C 9.554688 -5.082031 9.164062 -4.867188 8.75 -4.703125 C 8.34375 -4.546875 7.984375 -4.359375 7.671875 -4.140625 C 7.367188 -3.929688 7.21875 -3.578125 7.21875 -3.078125 C 7.332031 -2.535156 7.390625 -2.203125 7.390625 -2.078125 C 7.390625 -1.953125 7.296875 -1.566406 7.109375 -0.921875 C 7.148438 -0.847656 7.148438 -0.773438 7.109375 -0.703125 C 7.078125 -0.628906 7.078125 -0.554688 7.109375 -0.484375 C 7.078125 -0.410156 7.0625 -0.351562 7.0625 -0.3125 C 7.0625 -0.28125 7.0625 -0.265625 7.0625 -0.265625 C 6.957031 -0.117188 6.910156 0.078125 6.921875 0.328125 C 6.941406 0.578125 6.914062 0.789062 6.84375 0.96875 C 6.769531 1.070312 6.679688 1.160156 6.578125 1.234375 L 6.421875 1.34375 C 6.304688 1.488281 6.1875 1.648438 6.0625 1.828125 C 5.9375 2.015625 5.835938 2.195312 5.765625 2.375 C 5.691406 2.550781 5.503906 2.816406 5.203125 3.171875 C 4.898438 3.535156 4.59375 3.878906 4.28125 4.203125 C 3.976562 4.523438 3.753906 4.757812 3.609375 4.90625 L 3.1875 5.4375 C 3.070312 5.582031 2.914062 5.707031 2.71875 5.8125 C 2.519531 5.925781 2.332031 6.019531 2.15625 6.09375 C 2.082031 6.164062 2.046875 6.203125 2.046875 6.203125 C 1.753906 6.523438 1.414062 6.722656 1.03125 6.796875 Z M 0.21875 0.859375 C 0.0390625 1.035156 -0.140625 1.144531 -0.328125 1.1875 C -0.679688 1.289062 -0.945312 1.5625 -1.125 2 C -1.269531 2.320312 -1.453125 2.550781 -1.671875 2.6875 C -1.773438 2.800781 -1.875 2.910156 -1.96875 3.015625 C -2.0625 3.128906 -2.140625 3.253906 -2.203125 3.390625 C -2.242188 3.535156 -2.265625 3.679688 -2.265625 3.828125 C -2.265625 3.972656 -2.300781 4.117188 -2.375 4.265625 C -2.476562 4.546875 -2.441406 4.773438 -2.265625 4.953125 L -1.609375 5.71875 C -1.398438 5.851562 -1.207031 5.832031 -1.03125 5.65625 L -0.375 5.125 L 0.265625 4.421875 C 0.773438 4.023438 1.171875 3.539062 1.453125 2.96875 C 1.523438 2.894531 1.566406 2.820312 1.578125 2.75 C 1.597656 2.675781 1.628906 2.625 1.671875 2.59375 C 1.921875 2.195312 2.132812 1.726562 2.3125 1.1875 C 2.457031 0.9375 2.539062 0.675781 2.5625 0.40625 C 2.582031 0.132812 2.644531 -0.125 2.75 -0.375 C 2.78125 -0.375 2.796875 -0.425781 2.796875 -0.53125 C 2.796875 -1.113281 2.625 -1.304688 2.28125 -1.109375 C 1.945312 -0.910156 1.570312 -0.585938 1.15625 -0.140625 C 0.738281 0.304688 0.425781 0.640625 0.21875 0.859375 Z M 0.21875 0.859375 "/></g></g></g><g style="fill:#000000;fill-opacity:1;"><g transform="translate(164.207328, 45.228816)"><path style="stroke:none" d=""/></g></g></g></g><g clip-rule="nonzero" clip-path="url(#ce4834175b)"><g transform="matrix(1,0,0,1,10,0.000000000000016238)"><g clip-path="url(#fa08f327c0)"><g style="fill:#000000;fill-opacity:1;"><g transform="translate(1.261956, 68.133043)"><path style="stroke:none" d="M 95.921875 9.15625 C 92.160156 11.957031 88.441406 14.128906 84.765625 15.671875 C 81.085938 17.210938 76.859375 17.984375 72.078125 17.984375 C 67.222656 17.984375 62.515625 17.046875 57.953125 15.171875 C 53.390625 13.296875 48.789062 11.234375 44.15625 8.984375 C 39.519531 6.742188 34.71875 4.6875 29.75 2.8125 C 24.78125 0.9375 19.460938 0 13.796875 0 L 3.75 0 C 5.375 -0.4375 6.460938 -1.335938 7.015625 -2.703125 C 7.566406 -4.066406 7.84375 -5.519531 7.84375 -7.0625 L 7.84375 -47.34375 C 7.84375 -48.820312 7.546875 -50.203125 6.953125 -51.484375 C 6.367188 -52.773438 5.300781 -53.640625 3.75 -54.078125 L 39.296875 -54.078125 L 41.609375 -43.703125 C 39.773438 -47.015625 37.492188 -49.425781 34.765625 -50.9375 C 32.046875 -52.445312 28.8125 -53.203125 25.0625 -53.203125 L 14.453125 -53.203125 L 14.453125 -27.921875 L 15.78125 -27.921875 L 18.546875 -27.8125 C 19.796875 -27.8125 21.046875 -27.847656 22.296875 -27.921875 C 23.546875 -27.992188 24.6875 -28.234375 25.71875 -28.640625 C 26.75 -29.046875 27.664062 -29.632812 28.46875 -30.40625 C 29.28125 -31.175781 29.910156 -32.265625 30.359375 -33.671875 L 30.359375 -21.640625 C 29.691406 -23.765625 28.566406 -25.195312 26.984375 -25.9375 C 25.398438 -26.675781 23.578125 -27.046875 21.515625 -27.046875 L 14.453125 -27.046875 L 14.453125 -1.109375 C 19.242188 -1.109375 23.84375 -0.503906 28.25 0.703125 C 32.664062 1.921875 37.082031 3.34375 41.5 4.96875 L 49.109375 7.84375 C 53.523438 9.457031 57.941406 10.867188 62.359375 12.078125 C 66.773438 13.296875 71.375 13.90625 76.15625 13.90625 C 78.070312 13.90625 79.859375 13.8125 81.515625 13.625 C 83.171875 13.445312 84.769531 13.15625 86.3125 12.75 C 87.851562 12.34375 89.378906 11.789062 90.890625 11.09375 C 92.398438 10.394531 93.960938 9.53125 95.578125 8.5 Z M 95.921875 9.15625 "/></g></g></g></g></g></g></svg>